<?xml version="1.0" encoding="UTF-8"?>
<!DOCTYPE svg PUBLIC "-//W3C//DTD SVG 1.1//EN" "http://www.w3.org/Graphics/SVG/1.1/DTD/svg11.dtd">
<!-- Creator: CorelDRAW -->
<svg xmlns="http://www.w3.org/2000/svg" xml:space="preserve" width="173.812mm" height="221.705mm" version="1.1" style="shape-rendering:geometricPrecision; text-rendering:geometricPrecision; image-rendering:optimizeQuality; fill-rule:evenodd; clip-rule:evenodd"
viewBox="0 0 5641.24 7195.66"
 xmlns:xlink="http://www.w3.org/1999/xlink"
 xmlns:xodm="http://www.corel.com/coreldraw/odm/2003">
 <defs>
  <style type="text/css">
   <![CDATA[
    .str0 {stroke:#00A0E3;stroke-width:16.23;stroke-linecap:round;stroke-linejoin:round;stroke-miterlimit:22.9256}
    .fil3 {fill:#2B2A29}
    .fil1 {fill:#FFED00}
    .fil2 {fill:#E5097F}
    .fil0 {fill:#00A0E3}
   ]]>
  </style>
    <clipPath id="id0">
     <path d="M2858.32 4280.45l-255.2 0 0 -70.89 -127.6 0 0 148.87 191.4 0 0 204.16 -191.4 0 0 157.37 80.82 0 0 255.2 -429.59 0 0 -255.2 68.05 0 0 -510.4 -68.05 0 0 -255.2 731.57 0 0 326.09zm1607.75 138.34l-284.97 212.62 0 -421.85 -157.37 0 0 510.4 38.69 0 -229.21 171.01 -94.45 -94.45 0 -663.52 178.64 -178.64 370.04 0 178.64 178.64 0 285.79zm-919.53 686.06l-189.2 141.16 -29 0 0 -141.16 218.2 0zm-284.56 212.31l-80.31 59.92 0 -2.73 -108.17 0 -77 -77 0 -115.5 77 -77 146.67 0 77 77 0 64.17 -115.5 0 0 -31.17 -69.67 0 0 60.5 108.17 0 41.81 41.81zm-149.98 111.9l-88.99 66.4 -26.51 -27.6 0 -66 115.5 0 0 27.21zm-141.16 105.32l-14.03 10.47 -160.75 0 0 -110 29.33 0 -11 -36.67 -79.45 0 -11 36.67 29.33 0 0 110 -174.78 0 0 -110 29.33 0 110 -330 113.67 0 110 330 29.33 0 0 99.53zm-183.5 192.2l-92.55 110.16 0 -6.92c0,-34.27 9.74,-60.28 29.22,-78.02 15.02,-13.69 36.14,-22.1 63.33,-25.22zm-203.63 242.38l-39.17 46.62 -40.18 67.22 0 -347.93 -82.95 0 0 -60.48 245.26 0 0 60.48 -82.95 0 0 234.09zm1078.48 -993.8l-727.32 0 0 -255.2 68.05 0 0 -510.4 -68.05 0 0 -255.2 433.84 0 0 255.2 -80.81 0 0 510.4 119.09 0 0 -76.56 255.2 0 0 331.76zm-1109.35 569.69l-174.17 0 0 -114.89 29.33 0 0 -104.5 -46.44 80.05 -55.61 0 -47.06 -80.05 0 104.5 31.17 0 0 114.89 -174.78 0 0 -114.89 28.11 0 0 -215.11 -28.11 0 0 -110 143.61 0 75.78 135.67 1.83 0 73.94 -135.67 142.39 0 0 110 -28.11 0 0 215.11 28.11 0 0 114.89zm238.94 -220l-17.11 -55 -17.11 55 34.22 0zm-469.92 829.74l0 -56.85 -169.52 0 0 56.85 -77.18 0 0 -116.12 31.02 0c6.73,-7.26 11.42,-15.12 14.06,-23.59 2.65,-8.47 4.45,-18.95 5.41,-31.45l18.03 -309.04 222.18 0 0 364.08 34.62 0 0 116.12 -78.62 0zm-118.31 -172.36c-0.96,16.13 -3.25,28.22 -6.85,36.29 -3.61,8.06 -8.78,14.72 -15.51,19.96l103.87 0 0 -303.6 -67.09 0 -14.43 247.35z"/>
    </clipPath>
     <clipPath id="id1">
      <path d="M1943.48 3822.68l2654.27 0 0 2463.59 -2654.27 0 0 -2463.59z"/>
     </clipPath>
    <clipPath id="id2">
     <path d="M-0 965.18l5641.24 0 0 2576.81 -1110.25 828.36 0 -237.36c0,-17.88 -6.37,-33.26 -19.01,-45.9l-178.64 -178.64c-12.64,-12.64 -28.02,-19.01 -45.9,-19.01l-370.04 0c-17.88,0 -33.26,6.37 -45.9,19.01l-178.64 178.64c-12.64,12.64 -19.01,28.02 -19.01,45.9l0 446.53c-3.78,-0.69 -7.67,-1.05 -11.65,-1.05l-255.2 0c-22.59,0 -42.55,11.64 -54.18,29.23l0 -333.25 15.9 0c35.75,0 64.91,-29.16 64.91,-64.91l0 -255.2c0,-35.75 -29.16,-64.91 -64.91,-64.91l-433.84 0c-14.29,0 -27.54,4.66 -38.28,12.54 -10.74,-7.88 -23.99,-12.54 -38.28,-12.54l-731.57 0c-35.75,0 -64.91,29.16 -64.91,64.91l0 255.2c0,35.75 29.16,64.91 64.91,64.91l3.14 0 0 380.57 -3.14 0c-35.75,0 -64.91,29.16 -64.91,64.91l0 255.2c0,34.4 26.99,62.69 60.88,64.78l-7.42 0c-35.75,0 -64.91,29.16 -64.91,64.91l0 110c0,22.11 11.15,41.69 28.11,53.42l0 108.27c-16.96,11.73 -28.11,31.32 -28.11,53.42l0 114.89c0,35.75 29.16,64.91 64.91,64.91l22.4 0c-31.67,2.9 -56.92,28.5 -58.81,60.86l-17.77 304.48c-29.04,6.45 -50.87,32.44 -50.87,63.38l0 116.12c0,35.75 29.16,64.91 64.91,64.91l77.18 0c33.02,0 60.42,-24.88 64.41,-56.85l40.7 0c3.99,31.97 31.39,56.85 64.41,56.85l78.62 0c8.93,0 17.45,-1.82 25.21,-5.11l-340.98 570.41 17.34 110.9 -10.92 299.96 -661.78 0 -1429.36 -1593.15 0 -4637.33z"/>
    </clipPath>
 </defs>
 <g id="Слой_x0020_1">
  <metadata id="CorelCorpID_0Corel-Layer"/>
  <g id="_2365783359456">
   <path class="fil0" d="M2424.54 2120.31c200.3,0 362.71,162.41 362.71,362.71l0 1002.56c0,23.83 -3.12,53.24 -8.12,76.53 -35.83,166.75 -183.78,286.18 -354.59,286.18 -170.62,0 -318.49,-119.16 -354.49,-285.69 -5.06,-23.41 -8.21,-53.06 -8.21,-77.02l0 -1002.56c0,-200.3 162.41,-362.71 362.71,-362.71zm0 -748.41c200.3,0 362.71,162.41 362.71,362.71 0,200.3 -162.41,362.71 -362.71,362.71 -200.29,0 -362.71,-162.41 -362.71,-362.71 0,-200.3 162.41,-362.71 362.71,-362.71zm0 813.32c164.47,0 297.8,133.32 297.8,297.8l0 1002.56c0,17.94 -3.11,46.29 -6.67,62.89 -28.85,134.25 -148.23,234.9 -291.12,234.9 -142.75,0 -262.07,-100.44 -291.04,-234.5 -3.61,-16.7 -6.75,-45.27 -6.75,-63.3l0 -1002.56c0,-164.47 133.32,-297.8 297.79,-297.8zm0 -748.41c164.47,0 297.8,133.32 297.8,297.8 0,164.46 -133.32,297.79 -297.8,297.79 -164.47,0 -297.79,-133.33 -297.79,-297.79 0,-164.47 133.32,-297.8 297.79,-297.8z"/>
   <path class="fil1" d="M4168.28 2053.26c200.3,0 362.71,162.41 362.71,362.71l0 1087.2c0,23.84 -3.11,53.25 -8.12,76.54 -35.85,166.74 -183.78,286.17 -354.59,286.17 -170.63,0 -318.46,-119.17 -354.48,-285.69 -5.07,-23.42 -8.22,-53.06 -8.22,-77.02l0 -1087.2c0,-200.3 162.41,-362.71 362.71,-362.71zm76.73 -778.31c163.46,35.21 285.98,180.6 285.98,354.58 0,200.3 -162.41,362.71 -362.71,362.71 -200.3,0 -362.71,-162.41 -362.71,-362.71 0,-173.97 122.52,-319.36 285.98,-354.58 -136.7,-29.56 -247.28,-136.58 -277.76,-277.51 -5.06,-23.41 -8.22,-53.05 -8.22,-77.02l0 -557.71c0,-200.3 162.41,-362.71 362.71,-362.71 200.3,0 362.71,162.41 362.71,362.71l0 557.71c0,23.84 -3.11,53.25 -8.12,76.54 -30.34,141.14 -141,248.39 -277.87,277.99zm-76.73 -1210.04c164.47,0 297.8,133.32 297.8,297.8l0 557.71c0,17.94 -3.1,46.28 -6.67,62.9 -28.86,134.24 -148.24,234.9 -291.13,234.9 -142.75,0 -262.05,-100.44 -291.04,-234.5 -3.62,-16.71 -6.76,-45.27 -6.76,-63.3l0 -557.71c0,-164.47 133.33,-297.8 297.79,-297.8zm0 2053.26c164.47,0 297.8,133.32 297.8,297.8l0 1087.2c0,17.94 -3.1,46.27 -6.67,62.9 -28.87,134.25 -148.24,234.9 -291.13,234.9 -142.75,0 -262.02,-100.44 -291.04,-234.5 -3.6,-16.72 -6.76,-45.27 -6.76,-63.3l0 -1087.2c0,-164.48 133.33,-297.8 297.79,-297.8zm0 -786.45c164.47,0 297.8,133.32 297.8,297.8 0,164.47 -133.32,297.79 -297.8,297.79 -164.47,0 -297.79,-133.32 -297.79,-297.79 0,-164.47 133.33,-297.8 297.79,-297.8z"/>
   <path class="fil2" d="M3296.41 845.28c164.47,0 297.8,133.32 297.8,297.8l0 598.36c0,17.94 -3.1,46.3 -6.67,62.89 -28.84,134.24 -148.24,234.9 -291.13,234.9 -142.75,0 -262.07,-100.45 -291.04,-234.49 -3.61,-16.71 -6.76,-45.27 -6.76,-63.3l0 -598.36c0,-164.48 133.33,-297.8 297.79,-297.8zm0 1944.43c164.47,0 297.8,133.33 297.8,297.79l0 413.36c0,17.94 -3.1,46.29 -6.67,62.89 -28.86,134.25 -148.24,234.9 -291.13,234.9 -142.75,0 -262.05,-100.44 -291.04,-234.5 -3.62,-16.7 -6.76,-45.26 -6.76,-63.3l0 -413.36c0,-164.46 133.33,-297.79 297.79,-297.79zm0 -666.82c164.47,0 297.8,133.32 297.8,297.79 0,164.48 -133.32,297.8 -297.8,297.8 -164.46,0 -297.79,-133.32 -297.79,-297.8 0,-164.47 133.33,-297.79 297.79,-297.79zm-127.49 -41.87c-112.77,-42.38 -200.41,-139.55 -226.99,-262.57 -5.06,-23.41 -8.22,-53.05 -8.22,-77.01l0 -598.36c0,-200.3 162.41,-362.71 362.71,-362.71 200.3,0 362.71,162.41 362.71,362.71l0 598.36c0,23.83 -3.11,53.24 -8.11,76.53 -26.48,123.22 -114.19,220.61 -227.1,263.05 137.42,51.61 235.22,184.23 235.22,339.66 0,149.51 -90.49,277.91 -219.68,333.41 129.19,55.5 219.68,183.9 219.68,333.4l0 413.36c0,23.83 -3.11,53.24 -8.12,76.53 -35.84,166.75 -183.78,286.17 -354.59,286.17 -170.62,0 -318.47,-119.16 -354.48,-285.69 -5.06,-23.41 -8.22,-53.05 -8.22,-77.02l0 -413.36c0,-149.5 90.49,-277.9 219.68,-333.4 -129.19,-55.5 -219.68,-183.91 -219.68,-333.41 0,-155.43 97.8,-288.05 235.22,-339.66z"/>
   <g style="clip-path:url(#id0)">
    <image transform="matrix(0.131103 -0.103252 0.103252 0.131103 -1214.69 4491.35)" x="0" y="0" width="45799.21" height="25647.56" xlink:href="1_Images\1_ImgID1.png"/>
   </g>
   <g>
    <g style="clip-path:url(#id1)">
     <image x="1943.48" y="3822.68" width="2654.27" height="2463.59" xlink:href="1_Images\1_ImgID2.png"/>
    </g>
   </g>
   <path class="fil3 str0" d="M3673.85 4579.53l0 -446.53c0,-17.88 6.37,-33.26 19.01,-45.9l178.64 -178.64c12.64,-12.64 28.02,-19.01 45.9,-19.01l370.04 0c17.88,0 33.26,6.37 45.9,19.01l178.64 178.64c12.64,12.64 19.01,28.02 19.01,45.9l0 663.52c0,17.88 -6.37,33.26 -19.01,45.9l-178.64 178.64c-11.6,11.6 -25.52,17.93 -41.55,18.88l65.06 0c18.43,0 34.29,6.8 47.01,20.15l73.33 77c11.94,12.54 17.91,27.44 17.91,44.77l0 121c0,17.44 -6.05,32.45 -18.14,45.01l-13.49 14.01 5.46 9.65c28.92,6.54 50.62,32.48 50.62,63.32l0 110c0,35.75 -29.16,64.91 -64.91,64.91l-33.91 0c21.22,1.88 39.25,13.43 50.09,32.34 11.89,20.73 11.79,44.44 -0.28,65.07l-93.12 159.2 95.83 203.74c9.74,20.7 8.32,43.1 -3.93,62.41 -12.26,19.32 -31.93,30.13 -54.81,30.13l-81.51 0c-20.63,0 -38.89,-9 -50.95,-24.52 -11.91,14.93 -30.25,24.52 -50.76,24.52l-79.36 0c-35.75,0 -64.91,-29.16 -64.91,-64.91l0 -59.91c-3.67,10.43 -7.87,20.66 -12.7,30.59 -11.11,22.81 -26.77,42.59 -46.89,58.08 -20.95,16.13 -45.53,26.05 -71.23,31.65 -28.07,6.11 -57.92,6.69 -86.52,5 -34.35,-2.02 -61.1,-30.39 -61.1,-64.8l0 -59.27c0,-18.56 6.9,-34.53 20.41,-47.25 10.88,-10.24 23.6,-16.09 37.81,-17.39l-12.06 -35.92c-5.61,7.64 -12.06,14.86 -19.41,21.55 -29.4,26.78 -66.83,38.72 -105.39,42.3l0 95.37c0,35.75 -29.16,64.91 -64.91,64.91l-58.94 0c-3.99,31.97 -31.39,56.85 -64.41,56.85l-78.62 0c-33.02,0 -60.42,-24.88 -64.41,-56.85l-40.69 0c-3.99,31.97 -31.39,56.85 -64.41,56.85l-77.19 0c-35.75,0 -64.91,-29.16 -64.91,-64.91l0 -116.12c0,-30.93 21.83,-56.93 50.87,-63.38l17.76 -304.48c2.01,-34.37 30.38,-61.13 64.8,-61.13l136.55 0c-32.99,-3.01 -58.98,-30.88 -58.98,-64.64l0 -110c0,-22.63 11.69,-42.62 29.33,-54.25l0 -69.67 -44.57 0c9.9,11.74 14.89,25.6 14.89,41.42l0 115.5c0,17.7 -6.23,32.92 -18.65,45.53l-75.78 77c-12.67,12.87 -28.21,19.38 -46.27,19.38l-150.95 0c-18.34,0 -34.12,-6.72 -46.82,-19.95l-3.12 -3.25c-11.92,14.17 -29.78,23.2 -49.67,23.2l-44.27 0c28.9,2.66 52.42,24.41 57.78,52.47 36.15,4.32 70.94,16.38 98.61,41.59 36.07,32.85 50.41,78.13 50.41,126l0 115.51c0,47.87 -14.35,93.16 -50.41,126.01 -27.85,25.36 -62.89,37.42 -99.28,41.66 -6.9,28.43 -32.6,49.64 -63.09,49.64l-77.9 0c-30.5,0 -56.2,-21.22 -63.09,-49.64 -36.39,-4.25 -71.44,-16.3 -99.28,-41.66 -13.45,-12.26 -23.88,-26.24 -31.68,-41.44l0 67.84c0,35.75 -29.16,64.91 -64.91,64.91l-79.35 0c-14.6,0 -28.1,-4.86 -38.96,-13.05l0 4.99c0,35.75 -29.16,64.91 -64.91,64.91l-78.62 0c-33.02,0 -60.42,-24.88 -64.41,-56.85l-40.7 0c-3.99,31.97 -31.39,56.85 -64.41,56.85l-77.18 0c-35.75,0 -64.91,-29.16 -64.91,-64.91l0 -116.12c0,-30.93 21.83,-56.93 50.87,-63.38l17.77 -304.48c1.89,-32.35 27.14,-57.96 58.81,-60.86l-22.4 0c-35.75,0 -64.91,-29.16 -64.91,-64.91l0 -114.89c0,-22.11 11.15,-41.69 28.11,-53.42l0 -108.27c-16.96,-11.73 -28.11,-31.32 -28.11,-53.42l0 -110c0,-35.75 29.16,-64.91 64.91,-64.91l7.42 0c-33.89,-2.1 -60.88,-30.38 -60.88,-64.78l0 -255.2c0,-35.75 29.16,-64.91 64.91,-64.91l3.14 0 0 -380.57 -3.14 0c-35.75,0 -64.91,-29.16 -64.91,-64.91l0 -255.2c0,-35.75 29.16,-64.91 64.91,-64.91l731.57 0c14.29,0 27.54,4.66 38.28,12.54 10.75,-7.88 23.99,-12.54 38.28,-12.54l433.84 0c35.75,0 64.91,29.16 64.91,64.91l0 255.2c0,35.75 -29.16,64.91 -64.91,64.91l-15.9 0 0 333.25c11.63,-17.59 31.59,-29.23 54.18,-29.23l255.2 0c3.97,0 7.86,0.36 11.65,1.05zm-815.52 -299.09l-255.2 0 0 -70.89 -127.6 0 0 148.87 191.4 0 0 204.16 -191.4 0 0 157.37 80.82 0 0 255.2 -429.59 0 0 -255.2 68.05 0 0 -510.4 -68.05 0 0 -255.2 731.57 0 0 326.09zm803.88 694.71l-727.32 0 0 -255.2 68.05 0 0 -510.4 -68.05 0 0 -255.2 433.84 0 0 255.2 -80.81 0 0 510.4 119.09 0 0 -76.56 255.2 0 0 331.76zm803.88 -178.64l-178.64 178.64 -370.04 0 -178.64 -178.64 0 -663.52 178.64 -178.64 370.04 0 178.64 178.64 0 663.52zm-284.97 -76.56l0 -510.4 -157.37 0 0 510.4 157.37 0zm-1628.25 824.89l-174.17 0 0 -114.89 29.33 0 0 -104.5 -46.44 80.05 -55.61 0 -47.06 -80.05 0 104.5 31.17 0 0 114.89 -174.78 0 0 -114.89 28.11 0 0 -215.11 -28.11 0 0 -110 143.61 0 75.78 135.67 1.83 0 73.94 -135.67 142.39 0 0 110 -28.11 0 0 215.11 28.11 0 0 114.89zm418 0l-174.78 0 0 -110 29.33 0 -11 -36.67 -79.45 0 -11 36.67 29.33 0 0 110 -174.78 0 0 -110 29.33 0 110 -330 113.67 0 110 330 29.33 0 0 110zm-179.06 -220l-17.11 -55 -17.11 55 34.22 0zm505.39 143l-75.78 77 -150.95 0 -73.94 -77 0 -66 115.5 0 0 33 69.67 0 0 -60.5 -108.17 0 -77 -77 0 -115.5 77 -77 146.67 0 77 77 0 64.17 -115.5 0 0 -31.17 -69.67 0 0 60.5 108.17 0 77 77 0 115.5zm408.83 -221.83l-99 0 0 -31.17 -29.33 0 0 220 29.33 0 0 110 -179.67 0 0 -110 29.33 0 0 -220 -29.33 0 0 31.17 -99 0 0 -141.16 377.67 0 0 141.16zm357.5 298.83l-326.33 0 0 -110 29.33 0 0 -220 -29.33 0 0 -110 326.33 0 0 141.16 -115.5 0 0 -31.17 -60.5 0 0 64.17 98.39 0 0 88 -98.39 0 0 67.83 60.5 0 0 -33 115.5 0 0 143zm391.12 0l-158.28 0 0 -110 22 0 -31.16 -55 -34.84 0 0 55 23.83 0 0 110 -174.17 0 0 -110 29.33 0 0 -220 -29.33 0 0 -110 254.84 0 73.33 77 0 121 -47.05 48.89 47.05 83.11 24.45 0 0 110zm-147.28 -264l0 -66 -55 0 0 66 55 0zm-1985.48 873.74l0 -56.85 -169.52 0 0 56.85 -77.18 0 0 -116.12 31.02 0c6.73,-7.26 11.42,-15.12 14.06,-23.59 2.65,-8.47 4.45,-18.95 5.41,-31.45l18.03 -309.04 222.18 0 0 364.08 34.62 0 0 116.12 -78.62 0zm-118.31 -172.36c-0.96,16.13 -3.25,28.22 -6.85,36.29 -3.61,8.06 -8.78,14.72 -15.51,19.96l103.87 0 0 -303.6 -67.09 0 -14.43 247.35zm217.85 -307.83l245.26 0 0 60.48 -82.95 0 0 362.87 -79.35 0 0 -362.87 -82.95 0 0 -60.48zm421.27 375.57l-29.57 0c-39.92,0 -69.62,-8.87 -89.09,-26.61 -19.48,-17.74 -29.22,-43.75 -29.22,-78.02l0 -115.51c0,-34.27 9.74,-60.28 29.22,-78.02 19.47,-17.74 49.17,-26.61 89.09,-26.61l29.57 0 0 -50.8 77.9 0 0 50.8 29.58 0c39.91,0 69.61,8.87 89.09,26.61 19.47,17.74 29.21,43.75 29.21,78.02l0 115.51c0,34.27 -9.74,60.28 -29.21,78.02 -19.48,17.74 -49.17,26.61 -89.09,26.61l-29.58 0 0 47.78 -77.9 0 0 -47.78zm77.9 -266.1l0 208.04 29.58 0c12.51,0 22.24,-3.23 29.21,-9.68 6.98,-6.45 10.46,-17.34 10.46,-32.66l0 -123.98c0,-15.32 -3.48,-26.1 -10.46,-32.36 -6.97,-6.25 -16.71,-9.37 -29.21,-9.37l-29.58 0zm-77.9 0l-29.57 0c-12.51,0 -22.25,3.13 -29.22,9.37 -6.97,6.25 -10.46,17.04 -10.46,32.36l0 123.98c0,15.32 3.49,26.21 10.46,32.66 6.97,6.45 16.71,9.68 29.22,9.68l29.57 0 0 -208.04zm620.36 370.73l0 -56.85 -169.52 0 0 56.85 -77.19 0 0 -116.12 31.02 0c6.73,-7.26 11.42,-15.12 14.06,-23.59 2.65,-8.47 4.45,-18.95 5.41,-31.45l18.03 -309.04 222.18 0 0 364.08 34.62 0 0 116.12 -78.62 0zm-118.3 -172.36c-0.96,16.13 -3.25,28.22 -6.85,36.29 -3.61,8.06 -8.77,14.72 -15.51,19.96l103.87 0 0 -303.6 -67.08 0 -14.43 247.35zm357.79 -307.83c39.91,0 69.61,8.87 89.09,26.61 19.48,17.74 29.21,43.74 29.21,78.01l0 55.04c0,34.27 -9.73,60.28 -29.21,78.02 -19.48,17.74 -49.17,26.61 -89.09,26.61l-37.51 0 0 159.06 -79.35 0 0 -423.34 116.86 0zm-37.51 60.48l0 143.33 37.51 0c12.5,0 22.12,-2.82 28.86,-8.47 6.73,-5.64 10.09,-16.13 10.09,-31.45l0 -63.5c0,-15.32 -3.36,-25.8 -10.09,-31.45 -6.74,-5.65 -16.35,-8.47 -28.86,-8.47l-37.51 0zm368.61 255.22c-4.81,18.95 -10.7,35.58 -17.68,49.89 -6.97,14.31 -16.35,26 -28.13,35.08 -11.78,9.07 -26.93,15.62 -45.44,19.66 -18.52,4.03 -41.48,5.24 -68.89,3.63l0 -59.27c20.2,1.21 36.07,-0.4 47.61,-4.84 11.54,-4.44 19,-14.31 22.36,-29.64l0.72 -3.63 -109.64 -326.58 78.62 0 43.28 144.54 24.52 99.18 18.76 -98.58 36.07 -145.15 82.95 0 -85.12 315.69zm222.17 -61.08l-24.52 38.71 0 130.03 -79.36 0 0 -423.34 79.36 0 0 184.46 103.87 -184.46 79.35 0 -110.37 188.69 110.37 234.65 -81.51 0 -77.18 -168.73zm-157.9 -888.94l-30.29 0c5.24,0.33 10.31,1.28 15.15,2.79 4.83,-1.51 9.91,-2.46 15.15,-2.79zm-184.86 -0.13c-16.03,-0.96 -29.95,-7.28 -41.55,-18.88l-144.38 -144.38 0 98.48c0,34.4 -26.99,62.69 -60.88,64.78l39.77 0c5.37,0 10.59,0.66 15.58,1.9 4.99,-1.24 10.22,-1.9 15.59,-1.9l175.87 0zm-588.81 0.13l-99.71 0c16.03,0.96 29.95,7.28 41.55,18.88l8.94 8.94c11.01,-15.82 28.87,-26.55 49.22,-27.83zm-255.08 0l-134.28 0c-35.75,0 -64.91,-29.16 -64.91,-64.91l0 -255.2c0,-35.75 29.16,-64.91 64.91,-64.91l3.14 0 0 -380.57 -3.14 0c-3.98,0 -7.87,-0.36 -11.65,-1.05l0 7.03c0,35.75 -29.16,64.91 -64.91,64.91l-127.81 0c0.87,4.22 1.32,8.59 1.32,13.07l0 204.16c0,35.75 -29.16,64.91 -64.91,64.91l-126.49 0 0 27.55 15.9 0c35.75,0 64.91,29.16 64.91,64.91l0 255.2c0,35.6 -28.92,64.66 -64.46,64.91 33.93,2.04 60.97,30.36 60.97,64.79l0 94.98 38.5 -115.51c8.99,-26.97 33.15,-44.39 61.58,-44.39l113.67 0c28.43,0 52.59,17.42 61.58,44.38l38.5 115.51 0 -17.98c0,-17.88 6.37,-33.26 19.01,-45.9l77 -77c11.6,-11.6 25.52,-17.93 41.55,-18.88zm-662.95 0l-143.05 0c22.33,1.35 41.33,13.29 52.42,33.13l19.34 34.62 18.55 -34.04c10.99,-20.16 30.18,-32.36 52.74,-33.72zm1922.72 569.69l-32.59 0c-3.43,0 -6.8,-0.27 -10.08,-0.79 -3.29,0.52 -6.66,0.79 -10.08,0.79l-38.91 0c18.71,1.72 35.16,11.45 45.89,25.7 10.99,-14.95 27.16,-24.04 45.77,-25.7zm-183.01 0l-20.87 0c3.63,0.32 7.16,0.92 10.57,1.8 3.34,-0.87 6.78,-1.48 10.3,-1.8zm-49.92 -0.28c-4.57,-0.42 -9,-1.32 -13.25,-2.65 -4.25,1.32 -8.68,2.22 -13.25,2.65l26.49 0zm-66.3 0.28l-110.44 0c25.5,2.29 46.77,18.85 55.21,43.31 8.34,-24.28 29.68,-41 55.23,-43.31zm-201.44 0l-91.09 0c-35.75,0 -64.91,-29.16 -64.91,-64.91l0 -110c0,-22.63 11.69,-42.62 29.33,-54.25l0 -69.67 -59.01 0 0 69.67c17.65,11.63 29.33,31.62 29.33,54.25l0 110c0,33.75 -25.99,61.62 -58.98,64.64l89.59 0c30.56,0 61.43,4.25 89.21,15.95 10.14,-9.07 22.6,-14.44 36.53,-15.67zm-248.61 0l-66.62 0c12.44,1.15 23.88,5.84 33.31,13.04 9.43,-7.2 20.87,-11.89 33.31,-13.04zm-742.97 0l-40.63 0c-7.49,0 -14.69,-1.28 -21.39,-3.63 -6.7,2.35 -13.9,3.63 -21.39,3.63l-80.66 0c32.59,2.99 58.35,30.25 58.94,63.46 15.16,-5.55 31.11,-9.05 47.34,-10.99 5.36,-28.06 28.88,-49.81 57.78,-52.47zm-264.18 -0.28c-2.31,-0.21 -4.59,-0.55 -6.83,-1 -2.24,0.45 -4.51,0.79 -6.83,1l13.66 0zm-157.11 0.28l-36.71 0c-17.1,0 -32.69,-6.67 -44.31,-17.54 -10.25,9.59 -23.58,15.91 -38.32,17.27l69.82 0c9.93,0 19.34,2.25 27.77,6.26 6.71,-3.19 14.04,-5.27 21.76,-5.98zm15.38 190.03l0 181.3c3.04,1.61 5.94,3.46 8.67,5.52l0 -186.82 -8.67 0zm1635.65 -488.92c-0.97,0.04 -1.94,0.06 -2.92,0.06l-12.7 0 0 26.01 12.7 0c0.98,0 1.95,0.02 2.92,0.06l0 -26.14zm-1469.55 -48.39c-2.27,2.1 -4.68,4.04 -7.23,5.8l0 15.9 7.23 -21.7zm1519.31 -607.43l0 -380.57 -27.55 0 0 380.57 27.55 0z"/>
   <g style="clip-path:url(#id2)">
    <image transform="matrix(0.131103 -0.103252 0.103252 0.131103 -1214.69 4491.35)" x="0" y="0" width="45799.21" height="25647.56" xlink:href="1_Images\1_ImgID3.png"/>
   </g>
  </g>
 </g>
</svg>
