<?xml version="1.0" encoding="UTF-8"?>
<!DOCTYPE svg PUBLIC "-//W3C//DTD SVG 1.1//EN" "http://www.w3.org/Graphics/SVG/1.1/DTD/svg11.dtd">
<!-- Creator: CorelDRAW -->
<svg xmlns="http://www.w3.org/2000/svg" xml:space="preserve" width="173.821mm" height="221.664mm" version="1.1" style="shape-rendering:geometricPrecision; text-rendering:geometricPrecision; image-rendering:optimizeQuality; fill-rule:evenodd; clip-rule:evenodd"
viewBox="0 0 24315.65 31008.44"
 xmlns:xlink="http://www.w3.org/1999/xlink"
 xmlns:xodm="http://www.corel.com/coreldraw/odm/2003">
 <defs>
  <style type="text/css">
   <![CDATA[
    .str0 {stroke:#E5097F;stroke-width:69.94;stroke-miterlimit:22.9256}
    .fil3 {fill:#2B2A29}
    .fil1 {fill:#FFED00}
    .fil2 {fill:#E5097F}
    .fil0 {fill:#00A0E3}
   ]]>
  </style>
     <clipPath id="id0">
      <path d="M8566.07 16490.17l11239.27 0 0 10030.57 -11239.27 0 0 -10030.57z"/>
     </clipPath>
 </defs>
 <g id="Слой_x0020_1">
  <metadata id="CorelCorpID_0Corel-Layer"/>
  <g id="_2364881968784">
   <g>
    <path class="fil0" d="M10452.52 9138.76c16.19,0 32.27,0.35 48.33,0.83 44,92.84 91.33,185.63 121.06,234.17 13.96,22.8 25.4,47.46 25.43,54.79 0,0.99 -1.05,2.45 -2.95,4.27 -62.6,-9.37 -126.66,-14.28 -191.87,-14.28 -344.42,0 -657.13,135.68 -887.65,356.47 -192.25,33.7 -325.45,69.18 -453.27,123.17 175.38,-291.88 443.32,-521.8 763.24,-649.14l50.44 56.54 0 -0.01c27.5,30.94 53.33,56.22 57.38,56.18 18.14,-0.18 77.12,-47.8 97.33,-78.58 18.91,-28.79 16.06,-64.42 -4.52,-98.51 120.77,-29.92 247.03,-45.9 377.04,-45.9zm-1513.34 6277.56c-5.23,-20.23 -10.11,-40.6 -14.56,-61.16 -21.81,-100.9 -35.41,-228.68 -35.41,-331.94l0 -712.71c8.42,3.85 16.02,-1.65 21.77,-16.63 13.04,-34.01 7.51,-52.33 -15.81,-52.33 -2.08,0 -4.07,0.08 -5.96,0.25l0 -875.68c23.38,2.2 47.31,8.85 78.7,19.11 65.15,21.26 134.76,35.95 201.08,43.04l0 1314.58c-7.46,8.65 -11.19,18.65 -5.96,23.88l0 -0.01c1.9,1.9 3.9,3.46 5.96,4.66l0 251.84c0,38.15 3.26,87.23 8.42,135.83l-2.18 41.41 -107.8 98.97c-43.34,39.8 -93.36,85.36 -128.25,116.89zm5.33 -999.23c6.42,-19.26 41.81,-40.25 51.52,-30.55 4.38,4.38 4.8,16.19 0.98,26.23 -8.11,21.15 -59.47,25.38 -52.46,4.32l-0.04 0zm-8.59 -329.52c-9.67,-15.64 3.27,-35.53 23.12,-35.53 17.32,0 32.78,29 21.47,40.3 -11.04,11.04 -36.5,8.32 -44.58,-4.77l-0.01 0zm25.66 -327.68c-24.82,-24.82 2.31,-86.86 37.95,-86.86 46.72,0 69.2,60.21 32.01,85.68 -15.96,10.93 -59.47,11.65 -69.96,1.12l0 0.06zm1455.42 -4372.84c6.18,-5.67 26.84,-14 45.9,-18.51 30.48,-7.22 32.79,-5.97 19.28,10.31 -8.45,10.18 -29.1,18.51 -45.9,18.51 -18.05,0 -25.94,-4.21 -19.28,-10.31zm-157.91 -15.19c2.92,-8.77 14.8,-17.78 26.41,-20.03 13.5,-2.62 19.19,1.65 15.81,11.85 -2.92,8.76 -14.8,17.78 -26.41,20.03 -13.5,2.62 -19.19,-1.65 -15.81,-11.85zm26.5 -382.57c-15.99,-15.99 -29.07,-36.65 -29.07,-45.93 0,-16.59 32.65,-51.23 39.74,-42.16 26.96,34.43 43.17,68.28 43.17,90.19 0,34.87 -17.56,34.19 -53.84,-2.1zm166.93 -3076.26c558.66,0 1048.85,293.19 1325.3,734.01 -36.5,10.39 -73.6,21.91 -111.6,34.62 -29.89,10 -90.23,35.83 -156.87,66.2 -231.56,-335.3 -618.49,-555.05 -1056.82,-555.05 -708.89,0 -1283.53,574.64 -1283.53,1283.54 0,676.31 523.09,1230.44 1186.77,1279.9 12.24,48.09 26.83,97.29 43.81,148.1 10.31,30.85 30.57,79.78 55.28,135.27l-2.34 0.03c-863.29,0 -1563.31,-700.02 -1563.31,-1563.31 0,-863.31 699.99,-1563.32 1563.31,-1563.32z"/>
    <path class="fil1" d="M18807.2 9093.83c435.48,277.51 724.37,764.69 724.37,1319.3l0 4685.97c0,102.75 -13.4,229.5 -34.99,329.91 -154.54,718.67 -792.1,1233.42 -1528.33,1233.42 -509.35,0 -971.53,-246.4 -1259.13,-636.33 13.01,-4.87 23.8,-7.96 29.59,-7.96 33.29,0 101.48,-59.41 105.18,-91.67 3.36,-29.21 9.43,-33.32 56.89,-38.61 25.75,-2.87 39.24,-5.37 46.21,-11.33 234.47,307.57 604.64,506.12 1021.26,506.12 615.88,0 1130.36,-433.82 1254.81,-1012.46 15.39,-71.65 28.73,-193.76 28.73,-271.09l0 -4685.97c0,-506.79 -293.7,-944.9 -720.15,-1153.56 89.39,-58.85 156.76,-103.01 163.74,-107.17 39.36,-23.42 74.48,-42.25 111.81,-58.57zm-2363.89 6350.05c-0.97,-4.27 -1.99,-8.51 -2.91,-12.8 -17.39,-80.38 -29.57,-177.79 -33.8,-266.29 16.73,18.23 19.22,39.5 24.76,111.59 4.27,55.4 12.87,114.18 19.12,130.64 6.41,16.9 6.84,32.72 0.98,36.34 -2.6,1.61 -5.5,1.68 -8.16,0.52zm-38.36 -470.39l0 -1683.74c15.91,17.85 35.88,17.11 35.92,-1.94 0.03,-12.76 -21.99,-28.3 -35.92,-28.86l0 -2845.82c0,-77.74 5.76,-154.13 16.72,-228.82l1.61 -0.28c18.68,-3.22 146.2,-38.16 299.32,-81.23 -24.68,99.38 -37.87,203.32 -37.87,310.33l0 4374.45c-10.18,-7.89 -21.78,-16.45 -34.08,-25.07 -50.58,-35.48 -77.53,-47.7 -88.63,-40.2 -14.98,10.11 -98.01,146.23 -157.07,251.19zm2858.9 -4995.77c-13.51,-21.86 5.79,-36.43 30.66,-23.12 12.81,6.85 20.17,17.53 16.35,23.73 -9.13,14.77 -37.73,14.42 -47.02,-0.56l0 -0.04zm-964.9 -4482.54c662.7,142.76 1169.24,705.7 1227.05,1396.11 -100.23,37.06 -191.3,75.58 -274.42,116.12 -8.6,-701.52 -579.79,-1267.51 -1283.33,-1267.51 -708.88,0 -1283.53,574.64 -1283.53,1283.54 0,321.34 118.08,615.12 313.23,840.26 -3.92,5.32 -2.5,13.39 5.36,21.26 4.18,4.17 10.11,4.43 15.44,2.13 26.51,29.11 54.33,56.98 83.37,83.56 -120.51,13.79 -217.99,36.16 -317.41,74.09 -236.64,-273.97 -379.77,-630.91 -379.77,-1021.29 0,-749.83 528.1,-1376.5 1232.61,-1528.26 -589.2,-127.43 -1065.8,-588.67 -1197.16,-1196.11 -21.82,-100.92 -35.45,-228.66 -35.45,-331.96l0 -2403.79c0,-863.3 700.01,-1563.32 1563.31,-1563.32 863.31,0 1563.32,700.01 1563.32,1563.32l0 2403.79c0,102.75 -13.4,229.5 -34.99,329.91 -130.78,608.34 -607.74,1070.57 -1197.63,1198.15zm-330.7 -5215.4c708.9,0 1283.54,574.64 1283.54,1283.54l0 2403.79c0,77.34 -13.35,199.47 -28.73,271.11 -124.4,578.61 -638.93,1012.45 -1254.81,1012.45 -615.25,0 -1129.45,-432.92 -1254.4,-1010.73 -15.58,-72.04 -29.12,-195.1 -29.12,-272.83l0 -2403.79c0,-708.9 574.65,-1283.54 1283.53,-1283.54z"/>
    <path class="fil2" d="M14210.39 3643.25c708.9,0 1283.54,574.62 1283.54,1283.54l0 2382.57c115.18,13.5 204.66,27.24 279.78,46.26l0 -2428.83c0,-863.33 -699.99,-1563.32 -1563.32,-1563.32 -863.3,0 -1563.31,700.02 -1563.31,1563.32l0 1662.82c43.67,6.71 87.99,15.11 134.34,25.29 48.25,10.6 96.75,24.41 145.44,41.38l0 -1729.49c0,-708.92 574.67,-1283.54 1283.53,-1283.54zm1313.35 10523.78c-3.47,-9.05 -2.01,-23.42 3.23,-31.92 13.29,-21.5 50.12,-4.9 45.25,20.4 -4.92,25.57 -39.91,33.88 -48.49,11.53zm69.64 -727.73c-13.23,-13.23 -7.15,-47.95 9.53,-54.35 20.54,-7.88 30.76,1.51 30.76,28.23 0,20.94 -27.59,38.82 -40.3,26.12l0.01 0zm-187.3 -599.34c56.68,144.87 87.85,302.55 87.85,467.52l0 284.44c6.5,5.27 6.55,10.3 0,14.51l0 1410.78c12.23,13.84 26.01,30.54 39.18,47.66 69.13,89.85 83.58,100.52 136.1,100.52 23.57,0 51.77,6.66 62.67,14.8 17.72,13.23 18.1,19.82 3.51,62.18 -9.64,27.96 -14.16,74.07 -11.05,112.51 5.74,70.77 -4.28,166.1 -17.37,165.35 -4.49,-0.28 -28.89,-10.81 -54.22,-23.46l0.01 0c-25.33,-12.65 -65.31,-26.47 -88.83,-30.72 -46.32,-8.37 -79.23,-23 -111.8,-51.09 -63.13,241.27 -194.74,454.84 -372.79,618.73 7.11,18.91 17.3,40.97 31.84,71.86 26.82,56.98 48.77,106.51 48.77,110.06 0,3.55 12.42,31.22 27.61,61.48 2.97,5.92 6.57,13.89 10.67,23.54 267.89,-218.24 463.78,-524.79 540.49,-881.68 21.58,-100.36 34.99,-227.14 34.99,-329.85l0 -1781.64c0,-248.57 -58.1,-483.58 -161.35,-692.27l-20.1 21.05c-26.06,27.12 -87.35,93.8 -136.21,148.17l-49.97 55.52z"/>
   </g>
   <image x="-0" y="4158.18" width="24315.65" height="26850.26" xlink:href="2_Images\2_ImgID1.png"/>
   <g>
    <g style="clip-path:url(#id0)">
     <image x="8566.07" y="16490.17" width="11239.27" height="10030.57" xlink:href="2_Images\2_ImgID2.png"/>
    </g>
   </g>
   <path class="fil3 str0" d="M15837.16 19738.3l0 -1924.61c0,-77.05 27.46,-143.36 81.95,-197.83l769.95 -769.95c54.47,-54.49 120.78,-81.95 197.83,-81.95l1594.91 0c77.05,0 143.34,27.46 197.83,81.95l769.96 769.95c54.49,54.47 81.95,120.78 81.95,197.83l0 2859.84c0,77.05 -27.46,143.36 -81.95,197.83l-769.96 769.95c-41.76,41.76 -90.47,67.64 -145.61,77.46l246.95 0c79.44,0 147.81,29.31 202.6,86.83l316.08 331.87c51.48,54.05 77.18,118.29 77.18,192.95l0 521.52c0,75.18 -26.08,139.86 -78.2,194.01l-58.14 60.4 23.54 41.59c124.63,28.2 218.16,139.99 218.16,272.92l0 474.11c0,154.1 -125.68,279.78 -279.78,279.78l-682.2 0c-14.77,0 -29.29,-1.16 -43.46,-3.39 -14.17,2.22 -28.69,3.39 -43.46,3.39l-750.69 0c-28.87,0 -56.74,-4.41 -82.97,-12.59 -26.23,8.18 -54.1,12.59 -82.97,12.59l-1377.77 0c76.45,50.02 127.13,136.41 127.13,234.26 0,11.16 -0.36,22.26 -1.08,33.25 67.16,51.17 110.64,131.99 110.64,222.62l0 661.1 39.53 -677.4c8.65,-148.13 130.92,-263.48 279.3,-263.48l602.55 0c26.08,0 51.34,3.6 75.33,10.32 23.98,-6.73 49.24,-10.32 75.32,-10.32l665.15 0c100.78,0 189.4,53.75 238.67,134.04 49.27,-80.3 137.89,-134.04 238.67,-134.04l211.29 0c109.07,0 203.92,62.96 250.02,154.41 95.46,20.13 185.17,60.12 260.21,128.47 119.68,109.03 170.58,259.02 170.58,418.41l0 313.27c0,159.39 -50.91,309.39 -170.6,418.42 -76.3,69.5 -167.78,109.67 -265.06,129.45 -47.69,86.45 -139.78,145.22 -245.16,145.22l-211.29 0c-105.38,0 -197.47,-58.77 -245.16,-145.22 -65.19,-13.26 -127.77,-35.67 -184.93,-69.93 -29.29,123.12 -140.35,215.15 -272.22,215.15l-215.19 0c-10.46,0 -20.79,-0.57 -30.96,-1.71 -45.83,92.24 -141.09,155.88 -250.75,155.88l-213.23 0c-95.04,0 -179.27,-47.8 -229.87,-120.6 -50.6,72.8 -134.83,120.6 -229.87,120.6l-209.32 0c-124.74,0 -230.86,-82.35 -266.77,-195.47 -42.54,26.17 -92.56,41.3 -146.02,41.3l-193.69 0c-48.08,0 -93.39,-12.24 -132.98,-33.74 -40.08,21.78 -86.07,33.74 -135.02,33.74l-221.07 0c-26.43,0 -52.02,-3.69 -76.28,-10.6 -24.27,6.91 -49.87,10.6 -76.3,10.6l-193.69 0c-48.08,0 -93.39,-12.24 -132.98,-33.74 -40.08,21.78 -86.07,33.74 -135.02,33.74l-221.07 0c-27.5,0 -54.1,-4 -79.23,-11.46 -25.14,7.46 -51.73,11.46 -79.23,11.46l-215.19 0c-154.1,0 -279.78,-125.68 -279.78,-279.78l0 -125.34c-12.42,-1.75 -24.75,-3.86 -36.94,-6.35 -24.03,106.54 -76.7,203.13 -162.73,279.46 -119.21,105.78 -271.89,145.14 -428.26,145.14 -111.62,0 -221.33,-20.05 -318.36,-70 -46.96,35.67 -105.46,56.88 -168.76,56.88l-215.19 0c-16.65,0 -32.97,-1.47 -48.84,-4.28 -16.45,2.84 -33.45,4.28 -50.93,4.28l-217.15 0c-63.45,0 -122.14,-20.66 -169.21,-56.25 -47.09,35.59 -105.77,56.25 -169.22,56.25l-197.58 0c-8.63,0 -17.14,-0.35 -25.5,-1.05 -8.35,0.7 -16.81,1.05 -25.38,1.05l-226.91 0c-67.16,0 -128.67,-22.35 -177.04,-61.93 -48.39,39.59 -109.9,61.93 -177.06,61.93l-201.5 0c-18.13,0 -35.77,-1.57 -52.84,-4.64 -16.49,3.05 -33.49,4.64 -50.85,4.64l-193.68 0c-48.08,0 -93.39,-12.24 -132.98,-33.74 -40.08,21.78 -86.07,33.74 -135.02,33.74l-90.51 0c-46.15,91.32 -140.91,154.17 -249.9,154.17l-213.23 0c-95.04,0 -179.27,-47.8 -229.87,-120.6 -50.6,72.8 -134.83,120.6 -229.87,120.6l-209.33 0c-154.1,0 -279.78,-125.68 -279.78,-279.78l0 -314.9c0,-104.05 57.3,-195.13 141.95,-243.34l44.37 -760.33c8.65,-148.13 130.92,-263.48 279.3,-263.48l602.55 0c37.71,0 73.74,7.53 106.62,21.17 32.89,-13.64 68.91,-21.17 106.62,-21.17l191.72 0c45.31,0 88.17,10.87 126.1,30.13 38.44,-19.51 82,-30.13 128.22,-30.13l236.71 0c20.09,0 39.69,2.14 58.59,6.18 19.51,-4.08 39.81,-6.18 60.75,-6.18l223.01 0c61.4,0 118.08,18.69 164.33,52.14 46.23,-33.46 102.92,-52.14 164.33,-52.14l199.54 0c52.64,0 101.24,13.22 143.23,38.29 41.78,-24.49 90.49,-38.29 142.39,-38.29l314.97 0c59.42,0 114.67,18.09 160.12,49.6 45.14,-31.27 99.87,-49.6 158.75,-49.6l215.19 0c63.3,0 121.8,21.21 168.76,56.88 97.03,-49.95 206.74,-70 318.36,-70 104.55,0 207.44,17.58 299.78,60.87 44.62,-30.13 98.34,-47.74 156.03,-47.74l215.19 0c42.26,0 82.38,9.46 118.36,26.34 35.97,-16.88 76.09,-26.34 118.35,-26.34l215.19 0c27.5,0 54.1,4 79.23,11.46 25.14,-7.46 51.73,-11.46 79.23,-11.46l191.72 0c45.31,0 88.17,10.87 126.1,30.13 38.44,-19.51 82,-30.13 128.22,-30.13l229.64 0c4.78,-64.06 30.51,-120.96 76.6,-169.27 15.14,-15.85 31.29,-29.56 48.44,-41.09l-603.72 0c-154.1,0 -279.78,-125.68 -279.78,-279.78l0 -474.11c0,-97.56 50.37,-183.72 126.43,-233.83l0 -300.29 -192.08 0c42.68,50.6 64.18,110.36 64.18,178.53l0 497.82c0,76.27 -26.87,141.89 -80.37,196.25l-326.61 331.87c-54.6,55.47 -121.58,83.53 -199.41,83.53l-650.6 0c-79.04,0 -147.05,-28.99 -201.79,-85.99l-13.44 -13.99c-51.38,61.06 -128.33,99.98 -214.09,99.98l-753.32 0c-32.27,0 -63.3,-5.51 -92.19,-15.64 -28.89,10.13 -59.91,15.64 -92.19,15.64l-753.3 0c-18.93,0 -37.42,-1.9 -55.31,-5.51 -17.89,3.61 -36.39,5.51 -55.31,5.51l-750.67 0c-73.71,0 -140.9,-28.75 -190.96,-75.61 -50.07,46.86 -117.26,75.61 -190.96,75.61l-753.3 0c-154.1,0 -279.78,-125.68 -279.78,-279.78l0 -495.18c0,-95.28 48.05,-179.7 121.16,-230.26l0 -466.64c-73.11,-50.56 -121.16,-134.98 -121.16,-230.26l0 -474.1c0,-153.91 125.37,-279.44 279.21,-279.76 -130.4,-23.67 -229.82,-138.24 -229.82,-275.3l0 -1099.94c0,-154.1 125.68,-279.78 279.78,-279.78l13.54 0 0 -1640.31 -13.54 0c-154.1,0 -279.78,-125.68 -279.78,-279.78l0 -1099.94c0,-154.1 125.68,-279.78 279.78,-279.78l3153.15 0c61.61,0 118.68,20.09 165,54.05 46.3,-33.97 103.38,-54.05 164.99,-54.05l1869.89 0c154.1,0 279.78,125.68 279.78,279.78l0 1099.94c0,154.1 -125.68,279.78 -279.78,279.78l-68.53 0 0 1436.33c50.14,-75.82 136.17,-126 233.53,-126l1099.94 0c17.12,0 33.9,1.55 50.19,4.52zm-6048.46 6228.87l0 -154.17 -459.73 0 0 154.17 -209.33 0 0 -314.9 84.13 0c18.26,-19.68 30.97,-41 38.15,-63.97 7.18,-22.96 12.06,-51.38 14.66,-85.28l48.91 -838.12 602.55 0 0 987.37 93.91 0 0 314.9 -213.23 0zm-320.84 -467.44c-2.62,43.74 -8.8,76.53 -18.58,98.41 -9.78,21.86 -23.81,39.91 -42.06,54.12l281.71 0 0 -823.36 -181.94 0 -39.13 670.83zm874.48 313.27l-221.07 0 0 -1148.1 191.72 0 0 726.59 78.25 -252.58 176.06 -474 236.71 0 0 1148.1 -193.68 0 0 -808.59 -88.03 282.1 -179.97 526.49zm1332.22 -1148.1l-224.97 557.64 240.62 590.46 -226.91 0 -176.09 -454.32 -178.01 454.32 -201.5 0 240.62 -590.46 -224.97 -557.64 223.01 0 162.37 423.15 166.29 -423.15 199.54 0zm819.7 1148.1l-217.15 0 -37.17 -208.3 -264.1 0 -37.17 208.3 -197.58 0 219.09 -1148.1 314.97 0 219.09 1148.1zm-491.03 -364.12l207.37 0 -103.69 -580.61 -103.69 580.61zm966.41 -127.93l-160.43 0 0 492.05 -215.19 0 0 -1148.1 215.19 0 0 492.05 160.43 0 0 -216.51c0,-92.94 28.05,-164.29 84.13,-214.03 56.07,-49.76 136.94,-74.63 242.57,-74.63 105.63,0 186.51,24.87 242.58,74.63 56.08,49.74 84.12,121.09 84.12,214.03l0 597.02c0,92.94 -28.03,164.29 -84.12,214.03 -56.07,49.76 -136.95,74.63 -242.58,74.63 -105.63,0 -186.5,-24.87 -242.57,-74.63 -56.08,-49.74 -84.13,-121.09 -84.13,-214.03l0 -216.51zm215.19 227.98c0,41.56 10.11,70.81 30.31,87.75 20.23,16.95 47.28,25.42 81.19,25.42 33.91,0 60.96,-8.46 81.19,-25.42 20.2,-16.94 30.31,-46.19 30.31,-87.75l0 -619.98c0,-41.55 -10.11,-70.8 -30.31,-87.74 -20.23,-16.95 -47.28,-25.43 -81.19,-25.43 -33.91,0 -60.96,8.48 -81.19,25.43 -20.2,16.94 -30.31,46.19 -30.31,87.74l0 619.98zm1234.41 -884.03l0 1148.1 -215.19 0 0 -462.52c-23.47,21.86 -52.49,37.99 -87.05,48.37 -34.57,10.39 -66.83,15.58 -96.83,15.58 -88.69,0 -155.53,-24.33 -200.53,-72.98 -44.99,-48.67 -67.48,-112.36 -67.48,-191.07l0 -485.49 215.19 0 0 470.71c0,38.27 12.39,66.7 37.17,85.29 24.77,18.59 54.12,27.88 88.03,27.88 33.91,0 60.98,-10.11 81.19,-30.34 20.21,-20.23 30.31,-49.48 30.31,-87.74l0 -465.8 215.19 0zm379.53 1148.1l-221.07 0 0 -1148.1 191.72 0 0 726.59 78.25 -252.58 176.06 -474 236.72 0 0 1148.1 -193.69 0 0 -808.59 -88.03 282.1 -179.97 526.49zm835.34 0l-221.07 0 0 -1148.1 191.72 0 0 726.59 78.25 -252.58 176.06 -474 236.72 0 0 1148.1 -193.69 0 0 -808.59 -88.03 282.1 -179.97 526.49zm352.13 -1403.97c0,55.77 -18.9,100.05 -56.73,132.85 -37.83,32.8 -95.21,49.21 -172.16,49.21 -75.64,0 -131.4,-16.41 -167.25,-49.21 -35.88,-32.8 -55.12,-77.08 -57.72,-132.85l133.03 0c2.6,30.62 11.41,50.85 26.4,60.7 15,9.83 36.86,14.76 65.54,14.76 29.99,0 53.14,-4.92 69.44,-14.76 16.3,-9.85 25.77,-30.08 28.37,-60.7l131.08 0zm1191.4 1558.14l0 -154.17 -459.73 0 0 154.17 -209.32 0 0 -314.9 84.12 0c18.26,-19.68 30.97,-41 38.15,-63.97 7.18,-22.96 12.06,-51.38 14.66,-85.28l48.91 -838.12 602.55 0 0 987.37 93.91 0 0 314.9 -213.23 0zm-320.84 -467.44c-2.62,43.74 -8.8,76.53 -18.58,98.41 -9.78,21.86 -23.81,39.91 -42.06,54.12l281.71 0 0 -823.36 -181.94 0 -39.13 670.83zm590.81 -834.83l665.15 0 0 164.01 -224.98 0 0 984.09 -215.19 0 0 -984.09 -224.97 0 0 -164.01zm1142.48 1018.53l-80.2 0c-108.26,0 -188.78,-24.06 -241.62,-72.17 -52.82,-48.11 -79.22,-118.64 -79.22,-211.58l0 -313.27c0,-92.94 26.4,-163.46 79.22,-211.58 52.84,-48.11 133.36,-72.17 241.62,-72.17l80.2 0 0 -137.76 211.29 0 0 137.76 80.21 0c108.23,0 188.78,24.06 241.6,72.17 52.81,48.12 79.22,118.64 79.22,211.58l0 313.27c0,92.94 -26.41,163.47 -79.22,211.58 -52.82,48.11 -133.37,72.17 -241.6,72.17l-80.21 0 0 129.57 -211.29 0 0 -129.57zm211.29 -721.68l0 564.22 80.21 0c33.9,0 60.32,-8.74 79.22,-26.24 18.93,-17.5 28.37,-47.02 28.37,-88.56l0 -336.24c0,-41.55 -9.44,-70.8 -28.37,-87.74 -18.9,-16.95 -45.32,-25.43 -79.22,-25.43l-80.21 0zm-211.29 0l-80.2 0c-33.91,0 -60.32,8.48 -79.23,25.43 -18.91,16.94 -28.37,46.19 -28.37,87.74l0 336.24c0,41.55 9.46,71.06 28.37,88.56 18.91,17.5 45.32,26.24 79.23,26.24l80.2 0 0 -564.22zm-7584.55 -1066.77l-750.67 0 0 -495.18 126.43 0 0 -450.4 -200.18 345.04 -239.69 0 -202.83 -345.04 0 450.4 134.34 0 0 495.18 -753.3 0 0 -495.18 121.16 0 0 -927.16 -121.16 0 0 -474.1 618.97 0 326.61 584.74 7.9 0 318.71 -584.74 613.71 0 0 474.1 -121.16 0 0 927.16 121.16 0 0 495.18zm1801.62 0l-753.32 0 0 -474.11 126.43 0 -47.41 -158.03 -342.42 0 -47.41 158.03 126.43 0 0 474.11 -753.3 0 0 -474.11 126.43 0 474.1 -1422.32 489.92 0 474.11 1422.32 126.43 0 0 474.11zm-771.76 -948.23l-73.75 -237.06 -73.75 237.06 147.5 0zm2178.29 616.35l-326.61 331.87 -650.6 0 -318.71 -331.87 0 -284.46 497.82 0 0 142.23 300.29 0 0 -260.75 -466.22 0 -331.89 -331.89 0 -497.81 331.89 -331.87 632.16 0 331.87 331.87 0 276.56 -497.81 0 0 -134.34 -300.29 0 0 260.77 466.22 0 331.87 331.87 0 497.82zm1762.1 -956.13l-426.69 0 0 -134.34 -126.43 0 0 948.23 126.43 0 0 474.11 -774.39 0 0 -474.11 126.43 0 0 -948.23 -126.43 0 0 134.34 -426.7 0 0 -608.43 1627.78 0 0 608.43zm1540.87 1288l-1406.53 0 0 -474.11 126.43 0 0 -948.23 -126.43 0 0 -474.1 1406.53 0 0 608.43 -497.81 0 0 -134.34 -260.77 0 0 276.58 424.07 0 0 379.28 -424.07 0 0 292.37 260.77 0 0 -142.23 497.81 0 0 616.34zm1685.75 0l-682.2 0 0 -474.11 94.82 0 -134.32 -237.06 -150.14 0 0 237.06 102.72 0 0 474.11 -750.69 0 0 -474.11 126.43 0 0 -948.23 -126.43 0 0 -474.1 1098.37 0 316.08 331.87 0 521.52 -202.81 210.72 202.81 358.21 105.36 0 0 474.11zm-634.79 -1137.86l0 -284.48 -237.06 0 0 284.48 237.06 0zm-6245.46 -4307.92l-1099.94 0 0 -305.53 -549.97 0 0 641.63 824.96 0 0 879.95 -824.96 0 0 678.3 348.32 0 0 1099.94 -1851.56 0 0 -1099.94 293.32 0 0 -2199.87 -293.32 0 0 -1099.94 3153.15 0 0 1405.47zm3464.81 2994.28l-3134.82 0 0 -1099.94 293.32 0 0 -2199.87 -293.32 0 0 -1099.94 1869.89 0 0 1099.94 -348.31 0 0 2199.87 513.31 0 0 -329.98 1099.94 0 0 1429.92zm3464.79 -769.95l-769.96 769.95 -1594.91 0 -769.95 -769.95 0 -2859.84 769.95 -769.95 1594.91 0 769.96 769.95 0 2859.84zm-1228.27 -329.98l0 -2199.87 -678.3 0 0 2199.87 678.3 0zm-390.91 1379.71l-65.92 0c11.23,2.04 22.23,4.76 32.96,8.1 10.73,-3.34 21.72,-6.06 32.96,-8.1zm-797.93 -4.49c-55.16,-9.82 -103.85,-35.7 -145.6,-77.46l-622.31 -622.31 0 424.48c0,137.05 -99.39,251.6 -229.78,275.29l138.83 0c23.14,0 45.65,2.84 67.17,8.17 21.51,-5.33 44.02,-8.17 67.16,-8.17l724.53 0zm-2536.64 4.49l-363.96 0c55.16,9.82 103.85,35.7 145.6,77.46l38.55 38.55c41.52,-59.68 105.66,-102.54 179.81,-116.01zm-1100.58 0l-545.29 0c-154.1,0 -279.78,-125.68 -279.78,-279.78l0 -1099.94c0,-154.1 125.68,-279.78 279.78,-279.78l13.54 0 0 -1640.31 -13.54 0c-17.14,0 -33.91,-1.55 -50.21,-4.53l0 30.29c0,154.1 -125.68,279.78 -279.78,279.78l-550.88 0c3.74,18.2 5.71,37.04 5.71,56.32l0 879.95c0,154.1 -125.68,279.78 -279.78,279.78l-545.18 0 0 118.74 68.55 0c154.1,0 279.78,125.68 279.78,279.78l0 1099.94c0,144.98 -111.24,264.8 -252.74,278.46 134.25,20.4 237.7,136.8 237.7,276.6l0 409.39 165.95 -497.85c38.75,-116.25 142.9,-191.31 265.43,-191.31l489.92 0c122.53,0 226.68,75.06 265.43,191.3l165.95 497.85 0 -77.5c0,-77.05 27.46,-143.36 81.95,-197.83l331.89 -331.87c41.76,-41.76 90.47,-67.64 145.61,-77.46zm-2857.32 0l-549.74 0c81.67,14.48 150.35,63.43 192.49,138.85l83.35 149.23 79.96 -146.7c41.84,-76.77 111.27,-126.74 193.94,-141.39zm5617.37 2405.98c-76.45,-50.02 -127.13,-136.41 -127.13,-234.26l0 -474.11c0,-97.56 50.37,-183.72 126.43,-233.83l0 -300.29 -254.33 0 0 300.29c76.06,50.11 126.43,136.27 126.43,233.83l0 474.11c0,99.13 -52.01,186.49 -130.13,236.2 21.32,2.5 41.94,7.43 61.54,14.45 29.66,-10.63 61.61,-16.4 94.87,-16.4l102.32 0zm1571.77 -1242.76c-4.17,0.18 -8.37,0.28 -12.59,0.28l-54.72 0 0 112.11 54.72 0c4.22,0 8.42,0.1 12.59,0.28l0 -112.67zm-6333.92 -208.57c-9.76,9.05 -20.19,17.4 -31.17,25l0 68.52 31.17 -93.52zm6548.39 -2614.14l0 -1640.31 -118.74 0 0 1640.31 118.74 0z"/>
  </g>
 </g>
</svg>
