<?xml version="1.0" encoding="UTF-8"?>
<!DOCTYPE svg PUBLIC "-//W3C//DTD SVG 1.1//EN" "http://www.w3.org/Graphics/SVG/1.1/DTD/svg11.dtd">
<!-- Creator: CorelDRAW -->
<svg xmlns="http://www.w3.org/2000/svg" xml:space="preserve" width="300px" height="123px" version="1.1" style="shape-rendering:geometricPrecision; text-rendering:geometricPrecision; image-rendering:optimizeQuality; fill-rule:evenodd; clip-rule:evenodd"
viewBox="0 0 197.68 81"
 xmlns:xlink="http://www.w3.org/1999/xlink"
 xmlns:xodm="http://www.corel.com/coreldraw/odm/2003">
 <defs>
  <style type="text/css">
   <![CDATA[
    .fil0 {fill:#FEFEFE}
    .fil1 {fill:#2B2A29}
    .fil5 {fill:#FFED00}
    .fil7 {fill:#E5097F}
    .fil6 {fill:#00A0E3}
    .fil8 {fill:#2B2A29;fill-rule:nonzero}
    .fil3 {fill:#FFED00;fill-rule:nonzero}
    .fil2 {fill:#E5097F;fill-rule:nonzero}
    .fil4 {fill:#00A0E3;fill-rule:nonzero}
   ]]>
  </style>
    <clipPath id="id0">
     <path d="M0 0l197.68 0 0 81 -197.68 0 0 -81z"/>
    </clipPath>
 </defs>
 <g id="Слой_x0020_1">
  <metadata id="CorelCorpID_0Corel-Layer"/>
  <g id="_2519329106048">
   <g style="clip-path:url(#id0)">
    <image x="0" y="0" width="197.68" height="81" xlink:href="flomaster_Images\flomaster_ImgID1.png"/>
   </g>
  </g>
  <path class="fil0" d="M16.25 28.98c-1.05,-0.66 -1.84,-1.73 -2.11,-3.01 -0.07,-0.31 -0.11,-0.69 -0.11,-1l0 -7.07c0,-2.62 2.12,-4.74 4.73,-4.74 2.62,0 4.74,2.12 4.74,4.74l0 7.07c0,0.31 -0.04,0.69 -0.11,0.99 -0.27,1.29 -1.06,2.36 -2.11,3.02 1.33,0.84 2.22,2.32 2.22,4.01 0,1.64 -0.84,3.09 -2.11,3.94 1.27,0.85 2.11,2.3 2.11,3.94l0 4.88c0,0.31 -0.04,0.69 -0.11,1 -0.33,1.54 -1.39,2.77 -2.78,3.36l0.27 0c1.25,0.01 2.18,0.9 2.48,2 0.92,-1.14 2.45,-1.79 3.91,-1.95 -1.41,-0.57 -2.5,-1.82 -2.83,-3.38 -0.07,-0.3 -0.11,-0.69 -0.11,-1l0 -12.85c0,-2.29 1.64,-4.21 3.81,-4.64 -2.17,-0.43 -3.81,-2.35 -3.81,-4.65 0,-1.81 1.02,-3.39 2.52,-4.18 -1.2,-0.64 -2.11,-1.79 -2.41,-3.19 -0.07,-0.31 -0.11,-0.69 -0.11,-1l0 -6.59c0,-2.62 2.12,-4.74 4.73,-4.74 2.62,0 4.74,2.12 4.74,4.74l0 6.59c0,0.31 -0.04,0.69 -0.11,1 -0.3,1.4 -1.21,2.55 -2.42,3.19 1.51,0.79 2.53,2.37 2.53,4.18 0,2.3 -1.64,4.22 -3.81,4.65 2.17,0.43 3.81,2.35 3.81,4.64l0 12.85c0,0.31 -0.04,0.69 -0.11,1 -0.33,1.54 -1.39,2.77 -2.78,3.36 0.98,0.06 1.95,0.47 2.5,1.31 0.65,1 0.43,2.2 -0.42,3.02l-7.82 7.5c-0.15,0.15 -0.32,0.27 -0.51,0.38 0.46,0.34 0.73,0.87 0.73,1.52 0,1.61 -0.77,3.4 -2.31,3.9 0.12,0.3 0.19,0.66 0.19,1.06l0 2.91c0.01,1.32 -0.61,2.57 -1.85,3.13 -1.35,0.6 -2.7,1.19 -4.04,1.79 -1.02,0.45 -2.27,0.64 -2.89,-0.55 -0.33,-0.64 -0.27,-1.53 -0.27,-2.25l-0.02 -5.08c0,-0.36 0.02,-0.71 0.14,-1.04 -1.51,-0.53 -2.27,-2.31 -2.25,-3.91 0,-0.62 0.24,-1.13 0.67,-1.47 -0.19,-0.11 -0.36,-0.24 -0.51,-0.38l-7.78 -7.54c-0.85,-0.82 -1.06,-2.03 -0.4,-3.02 0.6,-0.9 1.68,-1.31 2.73,-1.31l0.32 0c-1.62,-0.48 -2.91,-1.81 -3.28,-3.53 -0.07,-0.31 -0.11,-0.69 -0.11,-1.01l0 -11.84c0,-2.02 1.26,-3.74 3.03,-4.42 -1.77,-0.69 -3.03,-2.41 -3.03,-4.42 0,-2.62 2.12,-4.74 4.73,-4.74 2.62,0 4.74,2.12 4.74,4.74 0,2.01 -1.26,3.73 -3.03,4.42 1.77,0.68 3.03,2.4 3.03,4.42l0 11.84c0,0.31 -0.04,0.69 -0.11,1 -0.37,1.74 -1.68,3.08 -3.32,3.55 1.59,0.07 3.33,0.73 4.34,2 0.3,-1.12 1.24,-2.02 2.49,-2.02l0.29 0c-1.37,-0.59 -2.42,-1.81 -2.75,-3.34 -0.07,-0.31 -0.11,-0.69 -0.11,-1.01l0 -4.88c0,-1.64 0.84,-3.09 2.1,-3.94 -1.26,-0.85 -2.1,-2.3 -2.1,-3.94 0,-1.69 0.89,-3.17 2.22,-4.01zm27.5 -17.52l0 4.99 5.3 0c2.37,0 4.54,0.94 4.54,3.61 0,2.7 -2.12,3.7 -4.54,3.7l-5.3 0 0 9.16c0,2.6 -1.1,4.76 -3.96,4.76 -2.81,0 -3.86,-2.16 -3.86,-4.7l0 -24.26c0,-2.88 1.45,-4.78 4.44,-4.78l9.58 0c2.48,0 4.44,1.11 4.44,3.8 0,2.74 -2.18,3.72 -4.62,3.72l-6.02 0zm21.29 18.39l5.68 0c1.16,0 2.44,0.17 3.41,0.84 0.98,0.68 1.43,1.71 1.43,2.88 0,2.72 -2.06,3.77 -4.52,3.77l-9.34 0c-1.22,0 -2.53,-0.25 -3.4,-1.17 -0.86,-0.9 -1.08,-2.2 -1.08,-3.4l0 -24.36c0,-2.56 1.08,-4.73 3.91,-4.73 2.87,0 3.91,2.25 3.91,4.82l0 21.35zm41.53 -9.15c0,4.38 -1.13,8.5 -3.98,11.88 -2.95,3.52 -6.88,5.1 -11.45,5.1 -4.56,0 -8.45,-1.63 -11.4,-5.14 -2.85,-3.38 -4.02,-7.45 -4.02,-11.84 0,-4.38 1.12,-8.5 3.97,-11.88 2.97,-3.53 6.88,-5.14 11.45,-5.14 4.58,0 8.53,1.57 11.5,5.09 2.85,3.39 3.93,7.56 3.93,11.93zm-15.43 -9.62c-2.06,0 -3.72,0.78 -5.07,2.33 -1.7,1.94 -2.11,4.8 -2.11,7.29 0,2.35 0.45,4.71 1.75,6.7 1.29,1.98 3.08,2.88 5.43,2.88 2.36,0 4.18,-0.9 5.48,-2.88 1.3,-1.97 1.7,-4.38 1.7,-6.7 0,-2.48 -0.39,-5.37 -2.08,-7.31 -1.36,-1.55 -3.03,-2.31 -5.1,-2.31zm-26.71 64.73c-0.6,-0.77 -0.83,-1.91 -0.95,-2.85l-2.12 -15.18 -4.17 14.96c-0.62,2.25 -1.99,4.11 -4.52,4.11 -2.54,0 -3.89,-1.87 -4.53,-4.11l-4.23 -14.98 -2.07 15.2c-0.13,0.95 -0.36,2.11 -0.94,2.89 -0.74,1.02 -1.92,1.39 -3.16,1.39 -2.47,0 -3.64,-1.68 -3.64,-4.02 0,-0.34 0.09,-0.82 0.14,-1.15l0.51 -3.48 3.05 -20.58c0.21,-1.35 0.82,-2.51 1.84,-3.42 1.04,-0.91 2.27,-1.35 3.65,-1.35 2.66,0 4.43,1.45 5.11,4l4.25 15.91 4.23 -15.91c0.68,-2.56 2.46,-4 5.12,-4 1.39,0 2.65,0.44 3.69,1.37 1.03,0.92 1.64,2.08 1.84,3.44l3.65 24.98c0.19,1.21 -0.11,2.34 -0.99,3.22 -0.72,0.71 -1.66,0.99 -2.65,0.99 -1.23,0 -2.38,-0.4 -3.11,-1.43zm27.01 -5.91l-10.76 0 -1.48 4.27c0,0.01 0,0.01 -0.01,0.02 -0.61,1.72 -1.81,3.05 -3.74,3.05 -0.99,0 -1.91,-0.31 -2.66,-0.97 -0.78,-0.69 -1.15,-1.63 -1.15,-2.67 0,-0.67 0.1,-1.33 0.33,-1.95l9.04 -24.31c0.88,-2.36 2.49,-4.23 5.17,-4.23 2.61,0 4.27,1.62 5.13,3.99l8.91 24.51c0.23,0.65 0.41,1.35 0.41,2.03 0,1.05 -0.41,1.97 -1.21,2.65 -0.76,0.64 -1.67,0.95 -2.67,0.95 -2.03,0 -3.26,-1.39 -3.89,-3.22l-1.42 -4.12zm-2.42 -7.19l-2.92 -8.58 -2.96 8.58 5.88 0zm20.38 6.78c0.94,0.29 1.92,0.43 2.91,0.43 0.95,0 1.72,-0.33 2.4,-0.99 0.66,-0.65 1.01,-1.39 1.01,-2.32 0,-1.64 -1.6,-2.56 -2.94,-3.11 -2.28,-0.94 -4.58,-1.86 -6.87,-2.79 -0.06,-0.02 -0.11,-0.05 -0.16,-0.08 -2.84,-1.7 -4.29,-4.27 -4.29,-7.57 0,-3.02 1.18,-5.52 3.57,-7.36 2.26,-1.74 4.92,-2.46 7.75,-2.46 2.53,0 5.26,0.44 7.31,2.02 1.04,0.8 1.75,1.86 1.75,3.2 0,1.01 -0.35,1.92 -1.12,2.59 -0.72,0.63 -1.61,0.91 -2.56,0.91 -0.93,0 -2.2,-0.49 -3.06,-0.84 -0.75,-0.3 -1.76,-0.65 -2.58,-0.65 -0.81,0 -1.55,0.19 -2.19,0.69 -0.56,0.45 -0.75,1.03 -0.75,1.73 0,0.54 0.18,0.89 0.63,1.18 0.35,0.23 0.77,0.42 1.15,0.59 0.65,0.3 1.32,0.57 1.98,0.82 1.45,0.57 2.91,1.16 4.31,1.82 0.88,0.41 1.86,0.9 2.64,1.48 2.43,1.82 3.54,4.36 3.54,7.37 0,3.3 -1.14,6.14 -3.7,8.27 -2.44,2.02 -5.41,2.82 -8.54,2.82 -2.03,0 -4.02,-0.35 -5.95,-1 -2.14,-0.73 -4.52,-2.07 -4.52,-4.63 0,-1.03 0.36,-1.97 1.14,-2.66 0.74,-0.65 1.65,-0.94 2.63,-0.94 0.7,0 1.75,0.42 2.39,0.68 0.5,0.19 1.02,0.38 1.54,0.58 0.18,0.07 0.39,0.14 0.58,0.22zm29.54 -18.6l0 21.65c0,2.59 -1.12,4.7 -3.96,4.7 -2.81,0 -3.87,-2.16 -3.87,-4.7l0 -21.65 -3.06 0c-2.42,0 -4.61,-0.95 -4.61,-3.67 0,-2.76 2.2,-3.72 4.65,-3.72l13.91 0c2.45,0 4.66,0.96 4.66,3.72 0,2.71 -2.18,3.67 -4.59,3.67l-3.13 0zm17.31 0.13l0 4.99 5.76 0c2.4,0 4.58,0.95 4.58,3.66 0,2.7 -2.18,3.65 -4.58,3.65l-5.76 0 0 6.09 6.53 0c2.48,0 4.54,1.08 4.54,3.81 0,1.14 -0.43,2.16 -1.37,2.83 -0.94,0.67 -2.16,0.85 -3.29,0.85l-9.71 0c-1.19,0 -2.49,-0.21 -3.38,-1.06 -0.92,-0.86 -1.15,-2.18 -1.15,-3.39l0 -24.17c0,-2.88 1.46,-4.78 4.44,-4.78l9.84 0c2.47,0 4.53,1.05 4.53,3.76 0,2.73 -2.12,3.76 -4.58,3.76l-6.4 0zm22.44 14.78l0 6.85c0,2.58 -1.13,4.67 -3.96,4.67 -2.81,0 -3.87,-2.16 -3.87,-4.7l0 -24.38c0,-2.94 1.58,-4.74 4.57,-4.74l6.07 0c2.95,0 5.85,0.65 8.21,2.51 2.52,1.97 3.57,4.75 3.57,7.91 0,5.26 -2.62,8.3 -7.14,9.32l6.19 6.83c0.91,1.01 1.67,2.25 1.67,3.66 0,1.02 -0.36,1.93 -1.12,2.61 -0.73,0.67 -1.63,0.98 -2.61,0.98 -1.52,0 -2.77,-0.98 -3.7,-2.09l-7.88 -9.43zm0 -14.99l0 6.86c0.77,0.08 1.64,0.08 2.31,0.08 2.62,0 4.24,-0.8 4.24,-3.6 0,-2.55 -1.38,-3.34 -3.81,-3.34l-2.74 0z"/>
  <path class="fil1" d="M16.12 67.81l4.93 0.01c0.83,0.01 1,0.38 1,1.01l0.01 2.91c0,0.9 -0.39,1.68 -1.14,2.01 -1.34,0.6 -2.69,1.2 -4.04,1.8 -1.57,0.7 -1.45,-0.13 -1.44,-1.69l-0.02 -5.09c-0.01,-0.58 0.04,-0.97 0.7,-0.96zm-0.01 7.31c0.82,-1.96 2.18,-3.08 5.26,-4.27 -2.09,1.72 -3.12,1.57 -5.26,4.27z"/>
  <path class="fil1" d="M16.83 63.14l0.05 0 4.2 0.01 0.04 0 0.07 0.01 1.25 0c0.92,0 1.73,-0.12 1.73,0.71 0,1.05 -0.52,2.88 -2.05,2.82l-1.78 -0.01 0 0 -0.09 0 -0.01 0 -2.64 0 -0.01 0 0 0 0 0 -2.25 -0.01c-1.54,0.05 -2.04,-1.78 -2.04,-2.83 0.01,-0.83 0.82,-0.7 1.73,-0.7l1.8 0z"/>
  <path class="fil2" d="M22.21 53.24c0.21,-0.97 -0.45,-1.91 -1.33,-1.91l-2.25 -0.01 -2.03 0c-0.88,-0.01 -1.53,0.91 -1.34,1.88l1.36 7.11c0.14,0.71 0.69,1.22 1.34,1.22l0.77 0 0.66 0.01c0.64,0 1.19,-0.5 1.34,-1.2l1.48 -7.1z"/>
  <path class="fil3" d="M32.15 53.59c0.99,-0.95 0.14,-2.24 -1.47,-2.24l-2.69 -0.01c-1.93,0 -3.67,0.98 -4.12,2.34l-2.22 6.6c-0.12,0.37 0.03,0.75 0.4,1 0.64,0.44 1.71,0.35 2.28,-0.19l7.82 -7.5z"/>
  <path class="fil4" d="M5.32 53.56c-0.98,-0.95 -0.13,-2.23 1.48,-2.23l2.7 0.01c1.93,0 3.65,0.99 4.1,2.35l2.17 6.61c0.12,0.37 -0.03,0.75 -0.4,1 -0.65,0.43 -1.72,0.34 -2.28,-0.2l-7.77 -7.54z"/>
  <path class="fil5" d="M29.06 20.13c1.95,0 3.52,1.57 3.52,3.51 0,1.95 -1.57,3.52 -3.52,3.52 -1.94,0 -3.51,-1.57 -3.51,-3.52 0,-1.94 1.57,-3.51 3.51,-3.51z"/>
  <path class="fil5" d="M29.06 29.42c1.95,0 3.52,1.57 3.52,3.51l0 12.85c0,0.21 -0.03,0.55 -0.08,0.74 -0.34,1.59 -1.75,2.78 -3.44,2.78 -1.68,0 -3.09,-1.19 -3.43,-2.77 -0.05,-0.2 -0.08,-0.54 -0.08,-0.75l0 -12.85c0,-1.94 1.57,-3.51 3.51,-3.51z"/>
  <path class="fil5" d="M29.06 5.16c1.95,0 3.52,1.58 3.52,3.52l0 6.59c0,0.21 -0.03,0.54 -0.08,0.74 -0.34,1.59 -1.75,2.78 -3.44,2.78 -1.68,0 -3.09,-1.19 -3.43,-2.78 -0.05,-0.19 -0.08,-0.53 -0.08,-0.74l0 -6.59c0,-1.94 1.57,-3.52 3.51,-3.52z"/>
  <path class="fil6" d="M8.46 21.37c1.95,0 3.52,1.57 3.52,3.52 0,1.94 -1.57,3.51 -3.52,3.51 -1.94,0 -3.51,-1.57 -3.51,-3.51 0,-1.95 1.57,-3.52 3.51,-3.52z"/>
  <path class="fil6" d="M8.46 30.21c1.95,0 3.52,1.57 3.52,3.52l0 11.84c0,0.21 -0.03,0.55 -0.08,0.74 -0.34,1.59 -1.75,2.78 -3.44,2.78 -1.68,0 -3.09,-1.19 -3.43,-2.77 -0.05,-0.2 -0.08,-0.54 -0.08,-0.75l0 -11.84c0,-1.95 1.57,-3.52 3.51,-3.52z"/>
  <path class="fil7" d="M18.76 29.47c1.95,0 3.52,1.58 3.52,3.52 0,1.94 -1.57,3.52 -3.52,3.52 -1.94,0 -3.51,-1.58 -3.51,-3.52 0,-1.94 1.57,-3.52 3.51,-3.52z"/>
  <path class="fil7" d="M18.76 37.35c1.95,0 3.52,1.57 3.52,3.52l0 4.88c0,0.21 -0.03,0.55 -0.08,0.74 -0.34,1.59 -1.75,2.78 -3.44,2.78 -1.68,0 -3.09,-1.19 -3.43,-2.77 -0.05,-0.2 -0.08,-0.54 -0.08,-0.75l0 -4.88c0,-1.95 1.57,-3.52 3.51,-3.52z"/>
  <path class="fil7" d="M18.76 14.38c1.95,0 3.52,1.57 3.52,3.52l0 7.07c0,0.21 -0.03,0.54 -0.08,0.74 -0.34,1.59 -1.75,2.77 -3.44,2.77 -1.68,0 -3.09,-1.18 -3.43,-2.77 -0.05,-0.19 -0.08,-0.53 -0.08,-0.74l0 -7.07c0,-1.95 1.57,-3.52 3.51,-3.52z"/>
  <path class="fil8" d="M53.18 7.74c0,1.67 -1.14,2.5 -3.41,2.5l-7.24 0 0 7.43 6.52 0c2.21,0 3.32,0.8 3.32,2.39 0,1.66 -1.11,2.48 -3.32,2.48l-6.52 0 0 10.38c0,2.36 -0.91,3.54 -2.74,3.54 -1.76,0 -2.65,-1.16 -2.65,-3.48l0 -24.26c0,-2.38 1.08,-3.57 3.23,-3.57l9.58 0c2.15,0 3.23,0.87 3.23,2.59zm21.16 25.83c0,1.7 -1.1,2.55 -3.3,2.55l-9.34 0c-1.18,0 -2.02,-0.26 -2.52,-0.79 -0.49,-0.52 -0.74,-1.38 -0.74,-2.56l0 -24.36c0,-2.34 0.9,-3.51 2.69,-3.51 1.8,0 2.69,1.2 2.69,3.6l0 22.57 6.9 0c2.42,0 3.62,0.83 3.62,2.5zm31.01 -12.87c0,4.46 -1.23,8.16 -3.69,11.1 -2.63,3.1 -6.13,4.66 -10.52,4.66 -4.35,0 -7.84,-1.57 -10.47,-4.7 -2.49,-2.94 -3.74,-6.63 -3.74,-11.06 0,-4.49 1.23,-8.19 3.69,-11.1 2.63,-3.13 6.14,-4.7 10.52,-4.7 4.41,0 7.94,1.55 10.57,4.66 2.43,2.91 3.64,6.62 3.64,11.14zm-14.21 -10.84c-2.39,0 -4.39,0.92 -5.99,2.75 -1.61,1.84 -2.4,4.53 -2.4,8.09 0,2.93 0.65,5.39 1.94,7.37 1.49,2.28 3.64,3.42 6.45,3.42 2.82,0 4.98,-1.14 6.5,-3.42 1.27,-1.95 1.9,-4.41 1.9,-7.37 0,-3.58 -0.79,-6.28 -2.38,-8.11 -1.59,-1.82 -3.6,-2.73 -6.02,-2.73zm-21.17 63.36c0.14,0.87 -0.07,1.6 -0.64,2.16 -0.42,0.43 -1.02,0.64 -1.79,0.64 -1,0 -1.7,-0.31 -2.13,-0.94 -0.34,-0.42 -0.58,-1.18 -0.72,-2.28l-2.91 -20.79 -0.08 0 -5.68 20.4c-0.6,2.15 -1.71,3.23 -3.35,3.23 -1.64,0 -2.76,-1.08 -3.35,-3.23l-5.77 -20.4 -0.09 0 -2.82 20.78c-0.15,1.11 -0.39,1.88 -0.73,2.34 -0.42,0.59 -1.14,0.89 -2.17,0.89 -1.62,0 -2.42,-0.94 -2.42,-2.8 0,-0.06 0.04,-0.38 0.13,-0.98l0.51 -3.48 3.05 -20.57c0.17,-1.09 0.65,-1.98 1.44,-2.68 0.79,-0.7 1.73,-1.05 2.84,-1.05 2.06,0 3.37,1.03 3.93,3.1l5.36 20.02 0.16 0 5.31 -20.02c0.57,-2.07 1.88,-3.1 3.95,-3.1 1.13,0 2.09,0.35 2.88,1.06 0.79,0.71 1.28,1.61 1.45,2.71l3.64 24.99zm29.44 0.42c0,0.71 -0.26,1.28 -0.78,1.72 -0.52,0.44 -1.14,0.66 -1.88,0.66 -1.29,0 -2.2,-0.8 -2.74,-2.39l-1.7 -4.95 -12.5 0 -1.76 5.1c-0.54,1.49 -1.41,2.24 -2.6,2.24 -0.73,0 -1.35,-0.22 -1.85,-0.66 -0.49,-0.44 -0.74,-1.02 -0.74,-1.76 0,-0.57 0.08,-1.07 0.25,-1.53l9.04 -24.3c0.85,-2.29 2.19,-3.44 4.03,-3.44 1.89,0 3.22,1.06 3.99,3.18l8.9 24.52c0.23,0.62 0.34,1.16 0.34,1.61zm-8.69 -9.71l-4.59 -13.49c-0.05,0.09 -0.12,0.23 -0.2,0.42l-4.49 13.07 9.28 0zm31.9 2.22c0,3.08 -1.09,5.52 -3.27,7.33 -2.04,1.69 -4.62,2.54 -7.76,2.54 -1.9,0 -3.75,-0.31 -5.56,-0.94 -2.46,-0.82 -3.69,-1.97 -3.69,-3.47 0,-0.74 0.24,-1.32 0.72,-1.74 0.48,-0.43 1.09,-0.64 1.83,-0.64 0.31,0 0.96,0.2 1.95,0.59 1.36,0.51 2.06,0.78 2.12,0.81 1.07,0.34 2.19,0.51 3.35,0.51 1.24,0 2.33,-0.45 3.24,-1.34 0.92,-0.89 1.38,-1.95 1.38,-3.19 0,-1.81 -1.23,-3.22 -3.69,-4.24 -2.29,-0.93 -4.58,-1.86 -6.87,-2.79 -2.46,-1.47 -3.69,-3.65 -3.69,-6.52 0,-2.68 1.03,-4.82 3.1,-6.39 1.89,-1.47 4.22,-2.21 7,-2.21 2.85,0 5.04,0.59 6.57,1.77 0.85,0.65 1.27,1.39 1.27,2.23 0,0.7 -0.23,1.26 -0.7,1.67 -0.46,0.4 -1.05,0.61 -1.76,0.61 -0.51,0 -1.38,-0.25 -2.61,-0.74 -1.23,-0.5 -2.24,-0.75 -3.03,-0.75 -1.16,0 -2.14,0.32 -2.95,0.96 -0.8,0.63 -1.21,1.52 -1.21,2.68 0,0.97 0.4,1.7 1.19,2.21 0.62,0.4 1.74,0.9 3.35,1.52 3.42,1.33 5.64,2.37 6.66,3.14 2.04,1.52 3.06,3.65 3.06,6.39zm22.82 -18.93c0,1.64 -1.12,2.46 -3.37,2.46l-4.35 0 0 22.86c0,2.32 -0.91,3.48 -2.74,3.48 -1.76,0 -2.65,-1.16 -2.65,-3.48l0 -22.86 -4.28 0c-2.26,0 -3.39,-0.82 -3.39,-2.46 0,-1.67 1.14,-2.51 3.43,-2.51l13.91 0c2.29,0 3.44,0.84 3.44,2.51zm20.66 26c0,1.64 -1.15,2.46 -3.44,2.46l-9.71 0c-1.19,0 -2.04,-0.24 -2.55,-0.72 -0.51,-0.48 -0.76,-1.32 -0.76,-2.51l0 -24.17c0,-2.38 1.08,-3.57 3.22,-3.57l9.84 0c2.21,0 3.31,0.85 3.31,2.55 0,1.7 -1.12,2.54 -3.36,2.54l-7.62 0 0 7.43 6.98 0c2.24,0 3.37,0.81 3.37,2.44 0,1.62 -1.13,2.44 -3.37,2.44l-6.98 0 0 8.52 7.75 0c2.21,0 3.32,0.86 3.32,2.59zm26.68 0.51c0,0.7 -0.24,1.28 -0.72,1.71 -0.48,0.44 -1.08,0.66 -1.79,0.66 -0.9,0 -1.83,-0.55 -2.76,-1.65l-9.83 -11.75c0,0 -0.07,-0.07 -0.21,-0.21l0 10.16c0,2.3 -0.91,3.45 -2.74,3.45 -1.77,0 -2.65,-1.16 -2.65,-3.48l0 -24.38c0,-2.35 1.12,-3.53 3.35,-3.53l6.07 0c3.08,0 5.57,0.75 7.46,2.25 2.07,1.61 3.1,3.93 3.1,6.96 0,5.23 -2.79,8.04 -8.36,8.44l7.72 8.53c0.91,0.99 1.36,1.93 1.36,2.84zm-6.32 -19.58c0,-3.04 -1.68,-4.56 -5.03,-4.56l-3.96 0 0 9.12c0.71,0.17 1.89,0.26 3.53,0.26 3.64,0 5.46,-1.61 5.46,-4.82z"/>
 </g>
</svg>
